<mxfile host="app.diagrams.net" modified="2021-05-29T12:29:48.546Z" agent="5.0 (Windows NT 10.0; Win64; x64) AppleWebKit/537.36 (KHTML, like Gecko) Chrome/90.0.4430.212 Safari/537.36" etag="AXOrvqIgthStV8921NGe" version="14.7.3" type="github">
  <diagram id="iyZX3m2IJjsthL1zLjL2" name="Page-1">
    <mxGraphModel dx="3978" dy="5620" grid="1" gridSize="10" guides="1" tooltips="1" connect="1" arrows="1" fold="1" page="1" pageScale="1" pageWidth="850" pageHeight="1100" math="0" shadow="0">
      <root>
        <mxCell id="0" />
        <mxCell id="1" parent="0" />
        <mxCell id="5s6HkDlfMwi_nzcdnDTm-1" style="edgeStyle=orthogonalEdgeStyle;rounded=0;orthogonalLoop=1;jettySize=auto;html=1;entryX=0.5;entryY=0;entryDx=0;entryDy=0;exitX=0;exitY=0.5;exitDx=0;exitDy=0;" edge="1" parent="1" source="5s6HkDlfMwi_nzcdnDTm-4" target="5s6HkDlfMwi_nzcdnDTm-9">
          <mxGeometry relative="1" as="geometry" />
        </mxCell>
        <mxCell id="5s6HkDlfMwi_nzcdnDTm-2" style="edgeStyle=orthogonalEdgeStyle;rounded=0;orthogonalLoop=1;jettySize=auto;html=1;exitX=1;exitY=0.5;exitDx=0;exitDy=0;" edge="1" parent="1" source="5s6HkDlfMwi_nzcdnDTm-4" target="5s6HkDlfMwi_nzcdnDTm-18">
          <mxGeometry relative="1" as="geometry" />
        </mxCell>
        <mxCell id="5s6HkDlfMwi_nzcdnDTm-3" style="edgeStyle=orthogonalEdgeStyle;rounded=0;orthogonalLoop=1;jettySize=auto;html=1;entryX=0.5;entryY=0;entryDx=0;entryDy=0;" edge="1" parent="1" source="5s6HkDlfMwi_nzcdnDTm-4" target="5s6HkDlfMwi_nzcdnDTm-23">
          <mxGeometry relative="1" as="geometry" />
        </mxCell>
        <mxCell id="5s6HkDlfMwi_nzcdnDTm-4" value="" style="rounded=1;whiteSpace=wrap;html=1;dashed=1;" vertex="1" parent="1">
          <mxGeometry x="-120" y="-160" width="200" height="200" as="geometry" />
        </mxCell>
        <mxCell id="5s6HkDlfMwi_nzcdnDTm-5" value="Store" style="shape=cylinder3;whiteSpace=wrap;html=1;boundedLbl=1;backgroundOutline=1;size=15;" vertex="1" parent="1">
          <mxGeometry x="-10" y="-70" width="60" height="80" as="geometry" />
        </mxCell>
        <mxCell id="5s6HkDlfMwi_nzcdnDTm-6" value="API" style="shape=cylinder3;whiteSpace=wrap;html=1;boundedLbl=1;backgroundOutline=1;size=15;" vertex="1" parent="1">
          <mxGeometry x="-90.00000000000001" y="-70" width="60" height="80" as="geometry" />
        </mxCell>
        <mxCell id="5s6HkDlfMwi_nzcdnDTm-7" style="edgeStyle=orthogonalEdgeStyle;rounded=0;orthogonalLoop=1;jettySize=auto;html=1;" edge="1" parent="1" source="5s6HkDlfMwi_nzcdnDTm-9" target="5s6HkDlfMwi_nzcdnDTm-35">
          <mxGeometry relative="1" as="geometry" />
        </mxCell>
        <mxCell id="5s6HkDlfMwi_nzcdnDTm-8" style="edgeStyle=orthogonalEdgeStyle;rounded=0;orthogonalLoop=1;jettySize=auto;html=1;entryX=0;entryY=0.5;entryDx=0;entryDy=0;exitX=0.5;exitY=0;exitDx=0;exitDy=0;" edge="1" parent="1" source="5s6HkDlfMwi_nzcdnDTm-9" target="5s6HkDlfMwi_nzcdnDTm-4">
          <mxGeometry relative="1" as="geometry" />
        </mxCell>
        <mxCell id="5s6HkDlfMwi_nzcdnDTm-9" value="" style="rounded=1;whiteSpace=wrap;html=1;dashed=1;" vertex="1" parent="1">
          <mxGeometry x="-460" y="320" width="300" height="300" as="geometry" />
        </mxCell>
        <mxCell id="5s6HkDlfMwi_nzcdnDTm-10" value="App" style="rounded=0;whiteSpace=wrap;html=1;" vertex="1" parent="1">
          <mxGeometry x="-440" y="538" width="260" height="60" as="geometry" />
        </mxCell>
        <mxCell id="5s6HkDlfMwi_nzcdnDTm-11" style="edgeStyle=orthogonalEdgeStyle;rounded=0;orthogonalLoop=1;jettySize=auto;html=1;entryX=0.5;entryY=0;entryDx=0;entryDy=0;" edge="1" parent="1" source="5s6HkDlfMwi_nzcdnDTm-12" target="5s6HkDlfMwi_nzcdnDTm-10">
          <mxGeometry relative="1" as="geometry" />
        </mxCell>
        <mxCell id="5s6HkDlfMwi_nzcdnDTm-12" value="Configuration" style="rounded=0;whiteSpace=wrap;html=1;" vertex="1" parent="1">
          <mxGeometry x="-440" y="440" width="120" height="60" as="geometry" />
        </mxCell>
        <mxCell id="5s6HkDlfMwi_nzcdnDTm-13" style="edgeStyle=orthogonalEdgeStyle;rounded=0;orthogonalLoop=1;jettySize=auto;html=1;entryX=0.5;entryY=0;entryDx=0;entryDy=0;" edge="1" parent="1" source="5s6HkDlfMwi_nzcdnDTm-14" target="5s6HkDlfMwi_nzcdnDTm-16">
          <mxGeometry relative="1" as="geometry" />
        </mxCell>
        <mxCell id="5s6HkDlfMwi_nzcdnDTm-14" value="Router" style="rounded=0;whiteSpace=wrap;html=1;" vertex="1" parent="1">
          <mxGeometry x="-300" y="360" width="120" height="60" as="geometry" />
        </mxCell>
        <mxCell id="5s6HkDlfMwi_nzcdnDTm-15" style="edgeStyle=orthogonalEdgeStyle;rounded=0;orthogonalLoop=1;jettySize=auto;html=1;entryX=0.5;entryY=0;entryDx=0;entryDy=0;" edge="1" parent="1" source="5s6HkDlfMwi_nzcdnDTm-16" target="5s6HkDlfMwi_nzcdnDTm-10">
          <mxGeometry relative="1" as="geometry" />
        </mxCell>
        <mxCell id="5s6HkDlfMwi_nzcdnDTm-16" value="Pages" style="rounded=0;whiteSpace=wrap;html=1;" vertex="1" parent="1">
          <mxGeometry x="-300" y="440" width="120" height="60" as="geometry" />
        </mxCell>
        <mxCell id="5s6HkDlfMwi_nzcdnDTm-17" style="edgeStyle=orthogonalEdgeStyle;rounded=0;orthogonalLoop=1;jettySize=auto;html=1;" edge="1" parent="1" source="5s6HkDlfMwi_nzcdnDTm-18" target="5s6HkDlfMwi_nzcdnDTm-9">
          <mxGeometry relative="1" as="geometry" />
        </mxCell>
        <mxCell id="5s6HkDlfMwi_nzcdnDTm-18" value="" style="rounded=1;whiteSpace=wrap;html=1;dashed=1;" vertex="1" parent="1">
          <mxGeometry x="120" y="320" width="300" height="300" as="geometry" />
        </mxCell>
        <mxCell id="5s6HkDlfMwi_nzcdnDTm-19" value="Module A" style="rounded=0;whiteSpace=wrap;html=1;" vertex="1" parent="1">
          <mxGeometry x="140" y="440" width="120" height="60" as="geometry" />
        </mxCell>
        <mxCell id="5s6HkDlfMwi_nzcdnDTm-20" value="Module B" style="rounded=0;whiteSpace=wrap;html=1;" vertex="1" parent="1">
          <mxGeometry x="280" y="440" width="120" height="60" as="geometry" />
        </mxCell>
        <mxCell id="5s6HkDlfMwi_nzcdnDTm-21" style="edgeStyle=orthogonalEdgeStyle;rounded=0;orthogonalLoop=1;jettySize=auto;html=1;entryX=0.75;entryY=0;entryDx=0;entryDy=0;exitX=0;exitY=0.5;exitDx=0;exitDy=0;" edge="1" parent="1" source="5s6HkDlfMwi_nzcdnDTm-23" target="5s6HkDlfMwi_nzcdnDTm-9">
          <mxGeometry relative="1" as="geometry" />
        </mxCell>
        <mxCell id="5s6HkDlfMwi_nzcdnDTm-22" style="edgeStyle=orthogonalEdgeStyle;rounded=0;orthogonalLoop=1;jettySize=auto;html=1;entryX=0.25;entryY=0;entryDx=0;entryDy=0;exitX=1;exitY=0.5;exitDx=0;exitDy=0;" edge="1" parent="1" source="5s6HkDlfMwi_nzcdnDTm-23" target="5s6HkDlfMwi_nzcdnDTm-18">
          <mxGeometry relative="1" as="geometry" />
        </mxCell>
        <mxCell id="5s6HkDlfMwi_nzcdnDTm-23" value="" style="rounded=1;whiteSpace=wrap;html=1;dashed=1;" vertex="1" parent="1">
          <mxGeometry x="-120" y="80" width="200" height="200" as="geometry" />
        </mxCell>
        <mxCell id="5s6HkDlfMwi_nzcdnDTm-24" style="edgeStyle=orthogonalEdgeStyle;rounded=0;orthogonalLoop=1;jettySize=auto;html=1;" edge="1" parent="1" source="5s6HkDlfMwi_nzcdnDTm-25" target="5s6HkDlfMwi_nzcdnDTm-26">
          <mxGeometry relative="1" as="geometry" />
        </mxCell>
        <mxCell id="5s6HkDlfMwi_nzcdnDTm-25" value="Theme" style="rounded=0;whiteSpace=wrap;html=1;" vertex="1" parent="1">
          <mxGeometry x="-77.5" y="120" width="120" height="60" as="geometry" />
        </mxCell>
        <mxCell id="5s6HkDlfMwi_nzcdnDTm-26" value="Shared Components" style="rounded=0;whiteSpace=wrap;html=1;" vertex="1" parent="1">
          <mxGeometry x="-77.5" y="200" width="120" height="60" as="geometry" />
        </mxCell>
        <mxCell id="5s6HkDlfMwi_nzcdnDTm-27" value="Module C" style="rounded=0;whiteSpace=wrap;html=1;" vertex="1" parent="1">
          <mxGeometry x="140" y="517" width="120" height="60" as="geometry" />
        </mxCell>
        <mxCell id="5s6HkDlfMwi_nzcdnDTm-28" style="edgeStyle=orthogonalEdgeStyle;rounded=0;orthogonalLoop=1;jettySize=auto;html=1;entryX=1;entryY=0.5;entryDx=0;entryDy=0;exitX=0.5;exitY=0;exitDx=0;exitDy=0;" edge="1" parent="1" source="5s6HkDlfMwi_nzcdnDTm-18" target="5s6HkDlfMwi_nzcdnDTm-4">
          <mxGeometry relative="1" as="geometry" />
        </mxCell>
        <mxCell id="5s6HkDlfMwi_nzcdnDTm-29" value="Domain Layer" style="text;html=1;strokeColor=none;fillColor=none;align=center;verticalAlign=middle;whiteSpace=wrap;rounded=0;" vertex="1" parent="1">
          <mxGeometry x="230" y="320" width="80" height="20" as="geometry" />
        </mxCell>
        <mxCell id="5s6HkDlfMwi_nzcdnDTm-30" value="Application Layer" style="text;html=1;strokeColor=none;fillColor=none;align=center;verticalAlign=middle;whiteSpace=wrap;rounded=0;" vertex="1" parent="1">
          <mxGeometry x="-360" y="320" width="100" height="20" as="geometry" />
        </mxCell>
        <mxCell id="5s6HkDlfMwi_nzcdnDTm-31" value="UI Layer" style="text;html=1;strokeColor=none;fillColor=none;align=center;verticalAlign=middle;whiteSpace=wrap;rounded=0;" vertex="1" parent="1">
          <mxGeometry x="-46" y="80" width="52" height="20" as="geometry" />
        </mxCell>
        <mxCell id="5s6HkDlfMwi_nzcdnDTm-32" value="Infrastructure Layer" style="text;html=1;strokeColor=none;fillColor=none;align=center;verticalAlign=middle;whiteSpace=wrap;rounded=0;" vertex="1" parent="1">
          <mxGeometry x="-77.5" y="-160" width="115" height="20" as="geometry" />
        </mxCell>
        <mxCell id="5s6HkDlfMwi_nzcdnDTm-33" value="Module D" style="rounded=0;whiteSpace=wrap;html=1;" vertex="1" parent="1">
          <mxGeometry x="280" y="517" width="120" height="60" as="geometry" />
        </mxCell>
        <mxCell id="5s6HkDlfMwi_nzcdnDTm-34" style="edgeStyle=orthogonalEdgeStyle;rounded=0;orthogonalLoop=1;jettySize=auto;html=1;entryX=0.5;entryY=1;entryDx=0;entryDy=0;" edge="1" parent="1" source="5s6HkDlfMwi_nzcdnDTm-35" target="5s6HkDlfMwi_nzcdnDTm-9">
          <mxGeometry relative="1" as="geometry" />
        </mxCell>
        <mxCell id="5s6HkDlfMwi_nzcdnDTm-35" value="User" style="shape=umlActor;verticalLabelPosition=bottom;verticalAlign=top;html=1;outlineConnect=0;" vertex="1" parent="1">
          <mxGeometry x="-325" y="690" width="30" height="60" as="geometry" />
        </mxCell>
      </root>
    </mxGraphModel>
  </diagram>
</mxfile>
